<mxfile host="app.diagrams.net" modified="2024-01-18T09:14:36.954Z" agent="Mozilla/5.0 (Windows NT 10.0; Win64; x64) AppleWebKit/537.36 (KHTML, like Gecko) Chrome/120.0.0.0 Safari/537.36" version="22.1.21" etag="x9Wmpn_GTu6BABwUrfpo" type="github">
  <diagram name="Page-1" id="kaR8pdhjRu3ew_6LlHdQ">
    <mxGraphModel>
      <root>
        <mxCell id="0" />
        <mxCell id="1" parent="0" />
      </root>
    </mxGraphModel>
  </diagram>
</mxfile>
